<svg xmlns="http://www.w3.org/2000/svg" xmlns:xlink="http://www.w3.org/1999/xlink" x="0" y="0" version="1.1" viewBox="0 0 24 24" width="100" height="100"><g fill="none" stroke="none" stroke-width="1" stroke-linecap="butt" stroke-linejoin="miter" stroke-miterlimit="10" stroke-dasharray="" stroke-dashoffset="0" font-family="sans-serif" font-weight="normal" font-size="12" text-anchor="start" mix-blend-mode="normal"><g><g><path d="M0,24l0,-24l24,0l0,24z" fill="none"/><path d="M12,24c-6.62742,0 -12,-5.37258 -12,-12l0,0c0,-6.62742 5.37258,-12 12,-12l0,0c6.62742,0 12,5.37258 12,12l0,0c0,6.62742 -5.37258,12 -12,12z" fill="#000000"/><g fill="#000000"><path d="M15,9l-6,0c-0.4125,0 -0.75,0.3375 -0.75,0.75l0,4.5c0,0.4125 0.3375,0.75 0.75,0.75l6,0c0.4125,0 0.75,-0.3375 0.75,-0.75l0,-4.5c0,-0.4125 -0.3375,-0.75 -0.75,-0.75z M15,10.5l-3,1.875l-3,-1.875l0,-0.75l3,1.875l3,-1.875z"/></g></g></g></g></svg>